<svg width="60" height="33" viewBox="0 0 60 33" fill="none" xmlns="http://www.w3.org/2000/svg">
<rect x="24.7715" y="7.09589" width="10.3896" height="18.6716" fill="#FF5F00"/>
<path d="M25.4315 16.4333C25.4276 12.7892 27.1001 9.34578 29.9666 7.09584C25.0983 3.26984 18.1072 3.82713 13.9064 8.37606C9.70567 12.925 9.70567 19.9383 13.9064 24.4872C18.1072 29.0362 25.0983 29.5935 29.9666 25.7675C27.101 23.5182 25.4286 20.0763 25.4315 16.4333Z" fill="#EB001B"/>
<path d="M49.1793 16.4333C49.1792 20.9795 46.5834 25.1265 42.4943 27.1131C38.4052 29.0998 33.5407 28.5772 29.9668 25.7675C32.8312 23.5163 34.5037 20.0748 34.5037 16.4316C34.5037 12.7885 32.8312 9.34698 29.9668 7.09584C33.5407 4.28606 38.4052 3.76353 42.4943 5.75017C46.5834 7.73681 49.1792 11.8838 49.1793 16.43V16.4333Z" fill="#F79E1B"/>
</svg>
