<svg width="72" height="32" viewBox="0 0 72 32" fill="none" xmlns="http://www.w3.org/2000/svg">
<path fill-rule="evenodd" clip-rule="evenodd" d="M52.7441 10.3428H55.6031V21.6569H52.7441V10.3428Z" fill="white"/>
<path fill-rule="evenodd" clip-rule="evenodd" d="M21.5638 10.0205C18.828 10.0205 16 10.9765 16 10.9765V21.6569H18.9619V12.973C18.9619 12.973 20.0172 12.5325 21.5638 12.5325C23.4789 12.5325 24.2803 13.5752 24.2803 15.1915V21.6569H27.2022C27.2022 21.4978 27.2013 15.3546 27.2022 15.1915C27.2022 11.6997 25.5833 10.0205 21.5638 10.0205Z" fill="white"/>
<path fill-rule="evenodd" clip-rule="evenodd" d="M51.9302 10.3423H48.3974L45.7182 13.6548L44.2481 11.8071C43.5123 10.8816 42.3186 10.3423 41.1365 10.3423H39.398L43.8665 15.9447L39.2461 21.6569H42.75L45.6104 18.1313L47.2581 20.1966C47.9929 21.1193 49.1849 21.6569 50.3652 21.6569H52.0825L47.4626 15.8481L51.9302 10.3423Z" fill="white"/>
<path fill-rule="evenodd" clip-rule="evenodd" d="M34.1698 12.4477C35.458 12.4477 36.5299 13.0496 36.9686 14.0793L31.1351 15.109C31.4466 13.3961 32.6678 12.4477 34.1698 12.4477ZM39.7705 19.4862L37.8387 17.9189C37.2266 18.6399 36.1785 19.488 34.4791 19.488C33.1478 19.488 31.9338 18.7522 31.3774 17.5293L40.068 15.9998C40.068 15.1521 39.8999 14.3462 39.5948 13.615C38.7084 11.4877 36.658 10 34.1707 10C30.829 10 28.2734 12.3758 28.2734 15.9998C28.2734 19.4857 30.7756 22 34.4791 22C37.241 22 38.9026 20.5671 39.7705 19.4862Z" fill="white"/>
</svg>
