<svg width="78" height="32" viewBox="0 0 78 32" fill="none" xmlns="http://www.w3.org/2000/svg">
<g clip-path="url(#clip0_4579_21078)">
<path d="M66 7.51074H12V23.5107H66V7.51074Z" fill="#F7E224"/>
<path d="M18.9611 12.2786C19.2226 12.1687 19.5296 12.126 19.8154 12.126C20.3839 12.126 20.8673 12.303 21.2169 12.654C21.5878 13.005 21.7854 13.5117 21.8523 14.1252C21.8949 14.5647 21.8523 15.047 21.7216 15.5537C21.6122 16.0604 21.4358 16.4999 21.1956 16.8723C20.9342 17.3331 20.5815 17.6842 20.1437 17.9283C19.7941 18.1481 19.3989 18.258 18.9611 18.3007V17.4217C19.1131 17.3789 19.2682 17.3118 19.3989 17.2446C19.6847 17.0676 19.9248 16.8051 20.1225 16.4541C20.3201 16.1031 20.4721 15.7277 20.5815 15.3125C20.691 14.8974 20.7123 14.5006 20.691 14.1252C20.6484 13.7284 20.5146 13.4232 20.2958 13.179C20.0556 12.9379 19.7485 12.828 19.3989 12.828C19.2469 12.828 19.0918 12.8494 18.9611 12.8951V12.2786ZM15.0879 20.4098L16.5989 13.7498C16.6414 13.4873 16.687 13.2431 16.7296 12.9806C16.7509 12.7181 16.7722 12.4739 16.7965 12.2114H17.8484L17.7602 13.1119C18.0886 12.7822 18.4169 12.5197 18.7452 12.3641C18.8121 12.3213 18.8973 12.2969 18.9641 12.2755V12.8921C18.8121 12.9348 18.6571 13.0233 18.5051 13.1119C18.2193 13.3103 17.9791 13.5941 17.8058 13.9482C17.6082 14.2992 17.4562 14.7174 17.3468 15.1782C17.2373 15.6605 17.216 16.0359 17.2373 16.3442C17.2586 16.6952 17.3893 16.9608 17.6082 17.1805C17.8271 17.3789 18.1129 17.4888 18.4625 17.4888C18.6388 17.4888 18.8121 17.4675 18.9672 17.4217V18.3007H18.7696C18.3531 18.3007 18.0247 18.2122 17.7177 18.0596C17.4319 17.907 17.1704 17.6628 16.9515 17.3576L16.2523 20.4129H15.0909L15.0879 20.4098Z" fill="#0054A4"/>
<path d="M47.0442 13.1575C46.9134 13.1575 46.804 13.1789 46.6733 13.2003V12.3426C46.7402 12.3212 46.7827 12.2998 46.8253 12.2754C47.1323 12.1228 47.482 12.0557 47.8529 12.0557C48.4214 12.0557 48.8805 12.2327 49.2088 12.5623C49.5371 12.892 49.7348 13.3742 49.7773 14.0122C49.8868 15.1995 49.6679 16.2098 49.0993 17.0217C48.5521 17.858 47.8073 18.2731 46.8891 18.2731C46.8222 18.2731 46.7371 18.2518 46.6702 18.2518V17.1102C46.801 17.0889 46.9317 17.0217 47.0411 16.9332C47.2387 16.7806 47.3908 16.5608 47.5458 16.2525C47.6978 15.9229 47.8316 15.5505 47.9167 15.1537C48.0018 14.7569 48.0262 14.4273 48.0049 14.1434C47.9836 13.8138 47.8741 13.5726 47.7191 13.417C47.5428 13.2399 47.3239 13.1545 47.0411 13.1545L47.0442 13.1575ZM46.6733 13.2003C46.3236 13.3101 46.0166 13.5971 45.7764 14.0122C45.4268 14.6043 45.2961 15.2636 45.3599 15.99C45.4025 16.3624 45.4906 16.6493 45.6882 16.8477C45.8646 17.0461 46.1048 17.156 46.4118 17.156C46.5 17.156 46.5881 17.1346 46.6733 17.1133V18.2548C46.3449 18.2335 46.0592 18.1449 45.819 18.0137C45.5119 17.8611 45.2717 17.5955 45.0954 17.2659L44.3962 20.4097H42.5781L43.9797 14.0366C44.156 13.2247 44.2654 12.6081 44.308 12.2113H45.9497L45.9071 12.9378C46.1686 12.6966 46.4118 12.4982 46.6733 12.3456V13.2033V13.2003Z" fill="#0054A4"/>
<path d="M53.8756 15.3339C53.8331 15.3125 53.7874 15.3125 53.7449 15.3125H53.5473C53.2615 15.3125 53 15.3339 52.7811 15.4011V14.4335C53.0213 14.4121 53.3071 14.4121 53.5898 14.4121H54.0945C54.1371 14.1924 54.1827 14.0398 54.1827 13.9055C54.204 13.7956 54.204 13.7071 54.204 13.6185C54.1827 13.4415 54.1158 13.3103 53.9851 13.2217C53.8756 13.1332 53.6993 13.0905 53.4804 13.0905C53.2189 13.0905 53.0213 13.1576 52.8906 13.2675C52.848 13.3103 52.8024 13.3347 52.7811 13.3988V12.1687C53 12.126 53.2402 12.126 53.4804 12.126C54.2465 12.126 54.815 12.2359 55.2315 12.4984C55.6268 12.7608 55.8457 13.1363 55.8882 13.6399C55.9095 13.7925 55.9095 13.9482 55.8882 14.1222C55.8669 14.2748 55.8213 14.4732 55.7788 14.6716L55.3197 16.6922C55.2528 16.9333 55.2315 17.1744 55.189 17.44C55.1677 17.7025 55.1677 17.9467 55.1677 18.2092H53.5047V17.791C53.5047 17.6384 53.526 17.5041 53.526 17.3515C53.3071 17.6597 53.0456 17.9009 52.7811 18.0321V17.1103C52.9575 17.0218 53.1308 16.8906 53.3071 16.6922C53.5929 16.3412 53.7875 15.8803 53.8756 15.3309V15.3339ZM52.7811 15.4011C52.541 15.4682 52.3434 15.5537 52.167 15.688C51.7961 15.9291 51.6411 16.2374 51.6867 16.5884C51.6867 16.7868 51.7536 16.9394 51.8843 17.0493C51.9937 17.1592 52.1457 17.2019 52.3434 17.2019C52.4954 17.2019 52.6504 17.1805 52.7811 17.1134V18.0352L52.7386 18.0565C52.4528 18.2092 52.1488 18.2977 51.7748 18.2977C51.2489 18.2977 50.8324 18.1451 50.504 17.8581C50.1757 17.5712 49.9994 17.1989 49.9568 16.7166C49.8899 15.9688 50.1757 15.398 50.7898 15.0012C51.2702 14.6929 51.9268 14.4945 52.7811 14.4304V15.398V15.4011ZM52.7811 12.1718V13.4018C52.693 13.5117 52.6504 13.6643 52.6048 13.8414H50.8749C50.9175 13.2919 51.182 12.8738 51.6198 12.5655C51.9481 12.3671 52.319 12.2359 52.7811 12.1687V12.1718Z" fill="#0054A4"/>
<path d="M56.1953 20.3882L57.6394 18.1906L56.5875 12.1685H58.3843L58.8859 16.3012L61.2086 12.1685H62.9142L59.1929 18.4317L58.1198 20.3882H56.1953Z" fill="#0054A4"/>
<path d="M25.2853 12.7849C25.1333 12.7849 24.9995 12.8063 24.8475 12.8521V12.0829C25.0238 12.0615 25.2184 12.0615 25.416 12.0615C26.1152 12.0615 26.6625 12.2386 27.079 12.5682C27.5168 12.9192 27.7357 13.4045 27.8026 14.018C27.8451 14.5003 27.8026 15.0283 27.6505 15.5777C27.5198 16.1271 27.3222 16.6094 27.0607 17.0062C26.7537 17.4671 26.4041 17.7967 25.9663 17.9951C25.6592 18.1478 25.2883 18.2363 24.8505 18.2821V17.5129C25.0269 17.4701 25.2001 17.403 25.3309 17.3145C25.5923 17.1619 25.8112 16.9177 26.0088 16.588C26.2277 16.2157 26.3797 15.7975 26.4892 15.3366C26.5986 14.8544 26.6412 14.4576 26.6199 14.1065C26.5774 13.6457 26.4436 13.316 26.2247 13.1176C26.0058 12.8978 25.6987 12.788 25.2822 12.788L25.2853 12.7849ZM24.8475 12.8521C24.6955 12.8948 24.5191 12.9619 24.3671 13.0505C24.1057 13.2489 23.8625 13.5114 23.6679 13.8624C23.4703 14.192 23.3183 14.5888 23.2088 15.0711C23.0994 15.5533 23.0781 15.9715 23.0994 16.3225C23.1207 16.7193 23.2757 17.0031 23.4946 17.2229C23.7348 17.4427 24.0418 17.5526 24.4371 17.5526C24.5891 17.5526 24.7228 17.5312 24.8536 17.5098V18.279C24.7016 18.279 24.5252 18.3004 24.3489 18.3004C23.6496 18.3004 23.0781 18.1233 22.6646 17.751C22.2268 17.3999 21.9867 16.8933 21.9411 16.2553C21.8985 15.7273 21.9411 15.1993 22.1174 14.6285C22.2694 14.0577 22.4883 13.5724 22.7953 13.1573C23.0811 12.7849 23.4308 12.5194 23.8685 12.321C24.1543 12.2111 24.5039 12.1226 24.8536 12.0798V12.849L24.8475 12.8521Z" fill="#0054A4"/>
<path d="M29.0068 16.234C28.9642 16.3439 28.9399 16.4324 28.9399 16.5209C28.9186 16.6094 28.9186 16.6735 28.9399 16.7407C28.9612 16.9818 29.0494 17.1588 29.2257 17.2687C29.402 17.3999 29.6422 17.4457 29.9918 17.4457C30.4509 17.4457 30.8005 17.3572 31.065 17.1832C31.3265 16.9848 31.4359 16.7437 31.4146 16.4568C31.4146 16.2798 31.3265 16.1271 31.1745 15.9959C31.0225 15.8647 30.7154 15.6876 30.232 15.4679C29.6179 15.1809 29.1801 14.9184 28.9399 14.6773C28.6785 14.4576 28.5447 14.1706 28.5234 13.8654C28.4808 13.3374 28.6754 12.9192 29.0919 12.5682C29.5297 12.2386 30.1195 12.0615 30.8644 12.0615C31.5423 12.0615 32.047 12.1714 32.3753 12.3698C32.725 12.5682 32.9013 12.8521 32.9439 13.2702V13.49C32.9439 13.5571 32.9439 13.667 32.9226 13.8196H31.8494V13.49C31.8281 13.2702 31.7399 13.0932 31.5636 12.9833C31.4116 12.8734 31.1684 12.8063 30.84 12.8063C30.4691 12.8063 30.1834 12.8948 29.9857 13.0474C29.7669 13.2 29.6787 13.4198 29.7 13.6853C29.7213 13.8379 29.7881 13.9936 29.9401 14.1035C30.0709 14.2347 30.3992 14.4118 30.9039 14.6529C31.6031 14.9825 32.0865 15.2695 32.2841 15.4892C32.4818 15.709 32.6125 15.9959 32.6338 16.3255C32.6763 16.875 32.4574 17.3572 31.9345 17.7326C31.4298 18.105 30.7519 18.3034 29.9219 18.3034C29.2652 18.3034 28.7605 18.1722 28.3684 17.9524C27.9975 17.7113 27.7998 17.3816 27.7542 16.9421C27.733 16.8536 27.733 16.7437 27.7542 16.6125C27.7755 16.5026 27.7968 16.3713 27.8211 16.2401H29.0038L29.0068 16.234Z" fill="#0054A4"/>
<path d="M36.2075 18.212C35.9886 18.2333 35.791 18.2547 35.6177 18.2791C35.4414 18.2791 35.2681 18.3005 35.113 18.3005C34.6752 18.3005 34.3469 18.2333 34.1493 18.0807C33.9304 17.9495 33.8209 17.7083 33.7997 17.3787C33.7784 17.2688 33.7997 17.0704 33.8209 16.8293C33.8422 16.5668 33.9091 16.3012 33.9517 16.0174L34.6296 13.0292H33.5352L33.7328 12.26H34.806L35.113 10.8987L36.2744 10.6118L35.9248 12.26H37.2168L37.0405 13.0292H35.7484L35.0917 16.1486C35.0249 16.3898 34.9823 16.5668 34.9823 16.6767C34.961 16.8079 34.9397 16.8964 34.961 16.9636C34.961 17.1406 35.0279 17.2505 35.1373 17.3146C35.2468 17.4031 35.4444 17.4458 35.7059 17.4458C35.794 17.4458 35.9248 17.4245 36.0555 17.4031C36.1649 17.4031 36.2957 17.3604 36.4051 17.336L36.2075 18.215V18.212Z" fill="#0054A4"/>
<path d="M39.9967 14.5218H41.4864C41.5077 14.3234 41.529 14.1708 41.529 14.0609C41.5503 13.951 41.5503 13.8625 41.529 13.774C41.5077 13.4443 41.377 13.2032 41.1581 13.0262C40.9179 12.8491 40.6108 12.7393 40.2156 12.7393C40.1487 12.7393 40.0636 12.7606 39.9967 12.7606V12.0342H40.2369C41.003 12.0342 41.5928 12.1868 41.9881 12.4737C42.359 12.7606 42.6022 13.2215 42.6447 13.8594C42.666 14.0792 42.666 14.3203 42.6447 14.5615C42.6447 14.8026 42.6022 15.0681 42.5353 15.3306H39.9967V14.5187V14.5218ZM39.9967 18.2578V17.3573C40.1275 17.3146 40.2582 17.2475 40.3676 17.1803C40.6291 17.0033 40.8267 16.7408 40.9361 16.4111H42.2282C42.0762 17.0033 41.7479 17.4672 41.2432 17.7969C40.8936 18.038 40.4771 18.1937 39.9967 18.2578ZM38.4645 14.5218H39.9967V15.3337H38.2669C38.2 15.5107 38.1787 15.6633 38.1574 15.8404C38.1361 15.993 38.1361 16.1486 38.1361 16.2799C38.1787 16.6523 38.3125 16.9392 38.5314 17.1376C38.7715 17.336 39.0786 17.4459 39.4951 17.4459C39.6714 17.4459 39.8447 17.4245 39.9998 17.3573V18.2578C39.8022 18.2791 39.5833 18.3005 39.3644 18.3005C38.6651 18.3005 38.1179 18.1235 37.7014 17.7938C37.3062 17.4642 37.066 16.9819 37.0234 16.3654C36.9808 15.9045 37.0234 15.3764 37.1754 14.7843C37.3062 14.2135 37.525 13.7068 37.7652 13.2887C38.0267 12.8919 38.3793 12.5622 38.7928 12.3669C39.1424 12.1685 39.5377 12.08 39.9967 12.0372V12.7637C39.6471 12.8064 39.34 12.9407 39.0999 13.2032C38.7928 13.4901 38.5739 13.9296 38.4645 14.5218Z" fill="#0054A4"/>
</g>
<defs>
<clipPath id="clip0_4579_21078">
<rect width="54" height="16" fill="white" transform="translate(12 7.51074)"/>
</clipPath>
</defs>
</svg>
