<svg width="104" height="32" viewBox="0 0 104 32" fill="none" xmlns="http://www.w3.org/2000/svg">
<g clip-path="url(#clip0_4579_21023)">
<mask id="mask0_4579_21023" style="mask-type:luminance" maskUnits="userSpaceOnUse" x="10" y="5" width="85" height="21">
<path d="M10 25.5107H94.9796V5.51042H10V25.5107Z" fill="white"/>
</mask>
<g mask="url(#mask0_4579_21023)">
<path d="M35.0703 18.5536H35.219C36.0893 18.7386 36.8675 18.8684 37.6269 18.8684C38.7756 18.8684 39.6091 18.5904 39.6091 17.6087C39.6091 15.7936 35.1076 16.5157 35.1076 13.515C35.1076 11.8848 36.6264 11.0141 38.5345 11.0141C39.2943 11.0141 40.0537 11.125 40.7574 11.3473V12.7178H40.6092C39.8125 12.4592 39.1273 12.3478 38.5161 12.3478C37.6085 12.3478 36.6636 12.5517 36.6636 13.515C36.6636 15.2372 41.1647 14.5519 41.1647 17.4601C41.1647 19.5726 39.4609 20.2021 37.5712 20.2021C36.6448 20.2021 35.7188 20.0724 35.0703 19.9237V18.5536Z" fill="#EF373F"/>
<path d="M56.3159 19.8685C55.7973 20.0539 55.2045 20.2017 54.4635 20.2017C53.5555 20.2017 52.1297 19.9978 52.1297 17.9046V12.5696H50.9805V11.2731H52.1297V9.19842L53.4446 8.92044H53.5927V11.2731H56.4462V12.5696H53.5927V17.8678C53.5927 18.8122 54.3894 18.8868 54.7594 18.8868C55.1304 18.8868 55.7227 18.757 56.1862 18.6088L56.3159 19.8685Z" fill="#EF373F"/>
<path d="M61.7422 18.5536H61.8904C62.7611 18.7386 63.5394 18.8684 64.2988 18.8684C65.4475 18.8684 66.281 18.5904 66.281 17.6087C66.281 15.7936 61.7795 16.5157 61.7795 13.515C61.7795 11.8848 63.2982 11.0141 65.2064 11.0141C65.9657 11.0141 66.7256 11.125 67.4293 11.3473V12.7178H67.2811C66.4844 12.4592 65.7987 12.3478 65.1879 12.3478C64.2804 12.3478 63.3351 12.5517 63.3351 13.515C63.3351 15.2372 67.8366 14.5519 67.8366 17.4601C67.8366 19.5726 66.1328 20.2021 64.2431 20.2021C63.3166 20.2021 62.3907 20.0724 61.7422 19.9237V18.5536Z" fill="#EF373F"/>
<path d="M71.2808 18.6832C71.8556 18.7757 72.4663 18.8687 73.2446 18.8687C75.0597 18.8687 76.2085 17.7199 76.2085 15.4782C76.2085 13.4034 75.5227 12.3481 74.0413 12.3481C73.17 12.3481 72.2068 12.7181 71.2808 13.5337V18.6832ZM69.7988 11.2919L71.0953 11.0139H71.2808V12.1442C72.1515 11.4958 73.0964 11.0139 74.3745 11.0139C76.2826 11.0139 77.7641 12.3665 77.7641 15.2563C77.7641 18.0904 76.2826 20.202 73.1889 20.202C72.4663 20.202 71.892 20.1095 71.2808 19.9797V24.2958L69.9843 24.5737H69.7988V11.2919Z" fill="#EF373F"/>
<path d="M90.0455 19.8499L87.0586 11.2735H88.7624L90.8606 18.0163H90.9899L93.2943 11.2735H94.9801L91.7129 20.2761C90.9347 22.499 89.9709 23.5736 88.3781 24.5737L87.5446 23.4991C89.1563 22.3508 89.5636 21.7023 90.1748 20.202" fill="#EF373F"/>
<path d="M84.2832 15.9226L81.8937 16.2747C81.2641 16.3672 80.5595 16.6268 80.5595 17.6264C80.5595 18.3494 81.0607 18.8497 81.8196 18.8497C82.6347 18.8497 83.5611 18.3306 84.2832 17.8123V15.9226ZM85.7652 19.9239L84.5612 20.165H84.3573V18.9422H84.3201C83.5423 19.535 82.5974 20.1466 81.3193 20.1466C80.1895 20.1466 79.0039 19.3311 79.0039 17.7378C79.0039 15.5899 80.9304 15.293 81.9678 15.1444L84.2832 14.8296V14.2372C84.2832 12.7548 83.5795 12.3475 82.3015 12.3475C81.8196 12.3475 80.6156 12.4957 79.634 12.9403L79.4669 11.5697C80.2824 11.2545 81.5605 11.0138 82.5795 11.0138C84.4126 11.0138 85.7652 11.7732 85.7652 14.2372V19.9239Z" fill="#EF373F"/>
<path d="M47.795 17.8123C47.0728 18.3306 46.1464 18.8497 45.3313 18.8497C44.5719 18.8497 44.0712 18.3499 44.0712 17.6269C44.0712 16.6268 44.7758 16.3672 45.4054 16.2747L47.795 15.9226V17.8123ZM49.2769 14.2372C49.2769 11.7732 47.9243 11.0138 46.0907 11.0138C45.0722 11.0138 43.7937 11.2549 42.9786 11.5697L43.1457 12.9403C44.1274 12.4957 45.3313 12.3475 45.8132 12.3475C47.0913 12.3475 47.795 12.7553 47.795 14.2372V14.83L45.4795 15.1448C44.4422 15.293 42.5156 15.5899 42.5156 17.7378C42.5156 19.3311 43.7012 20.1466 44.8311 20.1466C46.1091 20.1466 47.054 19.535 47.8318 18.9422H47.869V20.165H48.0729L49.2769 19.9239V14.2372Z" fill="#EF373F"/>
<path d="M58.1309 20.165H58.1368L58.1309 20.1586V20.165Z" fill="#EF373F"/>
<path d="M59.4273 11.0137L58.1309 11.2917V19.1566V20.1586L58.1364 20.1646H58.3219L59.6128 19.8884V19.448V11.0137H59.4273Z" fill="#EF373F"/>
<path d="M59.4273 8.00895L58.1309 8.28693V8.85394V9.85586L58.1364 9.8623H58.3219L59.6128 9.58571V9.14526V8.00895H59.4273Z" fill="#EF373F"/>
<path d="M71.2808 14.9534C71.2808 15.363 70.9489 15.6943 70.5398 15.6943C70.1307 15.6943 69.7988 15.363 69.7988 14.9534C69.7988 14.5442 70.1307 14.2124 70.5398 14.2124C70.9489 14.2124 71.2808 14.5442 71.2808 14.9534Z" fill="#EF373F"/>
<path d="M25.9791 6.04494C26.1761 5.84796 26.0366 5.51107 25.7577 5.51107H21.1172L23.8155 8.2085L25.9791 6.04494Z" fill="#EF373F"/>
<path d="M19.4944 12.5297L16.1756 9.21095L13.1892 12.1979L10.0918 15.2952C9.96939 15.4172 9.96939 15.6155 10.0918 15.7375L13.1892 18.8353L16.1756 21.8218L19.4944 18.503L16.7288 15.7375L16.5075 15.5166L16.7288 15.2952L19.4944 12.5297Z" fill="#EF373F"/>
<path d="M23.8157 22.8244L21.1289 25.5112H25.7473C26.0258 25.5112 26.1657 25.1743 25.9687 24.9774L23.8157 22.8244Z" fill="#EF373F"/>
<path d="M29.8998 15.2955L26.8025 12.1981L23.3144 8.70998L20.2069 5.60249C20.1507 5.54634 20.0748 5.51551 19.9956 5.51275C19.9924 5.51275 19.9892 5.51091 19.9855 5.51091H14.2331C13.9546 5.51091 13.8152 5.8478 14.0122 6.04478L16.6774 8.70998L19.9956 12.0287L23.2628 15.2955L23.4837 15.5168L23.2628 15.7377L19.9956 19.0045L16.6774 22.3232L14.0232 24.9774C13.8262 25.1743 13.9657 25.5112 14.2441 25.5112H19.9947H19.997C20.0799 25.5112 20.1595 25.4781 20.2179 25.4196L23.3144 22.3232L26.8025 18.8356L29.8998 15.7377C30.0223 15.6158 30.0223 15.4179 29.8998 15.2955Z" fill="#EF373F"/>
</g>
</g>
<defs>
<clipPath id="clip0_4579_21023">
<rect width="84.9794" height="20" fill="white" transform="translate(10 5.51074)"/>
</clipPath>
</defs>
</svg>
