<svg width="76" height="32" viewBox="0 0 76 32" fill="none" xmlns="http://www.w3.org/2000/svg">
<g clip-path="url(#clip0_4579_20756)">
<path d="M27.7005 18.4191C26.3647 23.7763 20.9383 27.0365 15.5799 25.7006C10.2238 24.365 6.96317 18.9388 8.29955 13.582C9.63468 8.22422 15.0611 4.96363 20.4179 6.29925C25.7759 7.63486 29.0362 13.0617 27.7005 18.4191Z" fill="#50AF95"/>
<path fill-rule="evenodd" clip-rule="evenodd" d="M19.1656 17.0332C19.0939 17.0386 18.7234 17.0607 17.897 17.0607C17.2397 17.0607 16.7731 17.041 16.6094 17.0332C14.0693 16.921 12.1734 16.4772 12.1734 15.9458C12.1734 15.4145 14.0693 14.9713 16.6094 14.8573V16.5911C16.7755 16.6031 17.2511 16.6313 17.9084 16.6313C18.6971 16.6313 19.0921 16.5984 19.1632 16.5917V14.8585C21.6979 14.9719 23.5896 15.4157 23.5896 15.9458C23.5896 16.476 21.6985 16.9198 19.1632 17.0326L19.1656 17.0332ZM19.1656 14.6792V13.1277H22.7029V10.7617H13.0721V13.1277H16.6088V14.6786C13.7341 14.8111 11.5723 15.3827 11.5723 16.0676C11.5723 16.7525 13.7341 17.3234 16.6088 17.4566V22.4284H19.165V17.4548C22.0331 17.3222 24.1913 16.7513 24.1913 16.067C24.1913 15.3827 22.0349 14.8117 19.165 14.6786L19.1656 14.6792Z" fill="white"/>
</g>
<path d="M33.0862 12.1009L34.8636 11.8984V13.6445H36.4064V15.1628H34.8512V17.5161C34.8512 18.0728 35.0816 18.3512 35.5424 18.3512C35.8386 18.3512 36.0855 18.3006 36.283 18.1994L36.6903 19.7176C36.2871 19.8779 35.8592 19.9707 35.4066 19.996C34.6907 20.0297 34.123 19.8568 33.7033 19.4772C33.2919 19.0892 33.0862 18.4355 33.0862 17.5161V15.1628H32V13.6445H33.0862V12.1009Z" fill="white"/>
<path d="M43.0579 17.3262H38.5775C38.6268 17.6467 38.7955 17.9124 39.0835 18.1233C39.3715 18.3257 39.7541 18.427 40.2314 18.427C40.9144 18.427 41.441 18.2625 41.8113 17.9335L42.8111 19.0722C42.2022 19.688 41.3299 19.9959 40.1944 19.9959C39.1082 19.9959 38.2648 19.6964 37.6641 19.0975C37.0716 18.4987 36.7754 17.6889 36.7754 16.6683C36.7754 15.7067 37.0675 14.9307 37.6517 14.3402C38.236 13.7413 39.0218 13.4419 40.0092 13.4419C41.0872 13.4419 41.91 13.7793 42.4778 14.4541C43.0538 15.1289 43.2472 16.0862 43.0579 17.3262ZM38.5775 15.9977H41.4657C41.4492 15.6772 41.3011 15.4326 41.0214 15.2639C40.7416 15.0867 40.4042 14.9981 40.0092 14.9981C39.6554 14.9981 39.3509 15.0867 39.0959 15.2639C38.8408 15.441 38.668 15.6856 38.5775 15.9977Z" fill="white"/>
<path d="M44.5413 12.1009L46.3187 11.8984V13.6445H47.8614V15.1628H46.3063V17.5161C46.3063 18.0728 46.5367 18.3512 46.9975 18.3512C47.2937 18.3512 47.5407 18.3006 47.738 18.1994L48.1453 19.7176C47.7421 19.8779 47.3144 19.9707 46.8616 19.996C46.146 20.0297 45.578 19.8568 45.1583 19.4772C44.7469 19.0892 44.5413 18.4355 44.5413 17.5161V15.1628H43.4551V13.6445H44.5413V12.1009Z" fill="white"/>
<path d="M48.8105 11H50.6001V14.3782C51.0364 13.7962 51.6534 13.5052 52.4518 13.5052C54.0727 13.5052 54.8832 14.5047 54.8832 16.5038V19.8567H53.106V16.5165C53.106 16.0863 52.9988 15.7531 52.7849 15.5169C52.5793 15.2807 52.2994 15.1627 51.9455 15.1627C51.5589 15.1627 51.2337 15.2976 50.9705 15.5675C50.7153 15.8374 50.5877 16.2128 50.5877 16.6936V19.8567H48.8105V11Z" fill="white"/>
<path d="M61.8546 17.3262H57.3743C57.4236 17.6467 57.5923 17.9124 57.8802 18.1233C58.1682 18.3257 58.551 18.427 59.0283 18.427C59.7112 18.427 60.2378 18.2625 60.6082 17.9335L61.608 19.0722C60.9989 19.688 60.1267 19.9959 58.9911 19.9959C57.905 19.9959 57.0615 19.6964 56.4607 19.0975C55.8682 18.4987 55.5723 17.6889 55.5723 16.6683C55.5723 15.7067 55.8644 14.9307 56.4486 14.3402C57.0328 13.7413 57.8185 13.4419 58.8059 13.4419C59.884 13.4419 60.7068 13.7793 61.2745 14.4541C61.8505 15.1289 62.0439 16.0862 61.8546 17.3262ZM57.3743 15.9977H60.2623C60.2461 15.6772 60.0978 15.4326 59.8181 15.2639C59.5384 15.0867 59.2011 14.9981 58.8059 14.9981C58.4521 14.9981 58.1478 15.0867 57.8926 15.2639C57.6375 15.441 57.4647 15.6856 57.3743 15.9977Z" fill="white"/>
<path d="M62.5918 13.6191H64.2458L64.3817 14.3023C64.7683 13.7456 65.3115 13.4673 66.0109 13.4673C66.5869 13.4673 67.0845 13.6571 67.5043 14.0366L66.7638 15.479C66.4758 15.2681 66.1506 15.1627 65.7888 15.1627C65.3853 15.1627 65.048 15.2935 64.7766 15.5549C64.5051 15.808 64.3693 16.158 64.3693 16.6051V19.8568H62.5918V13.6191Z" fill="white"/>
<defs>
<clipPath id="clip0_4579_20756">
<rect width="20" height="20" fill="white" transform="translate(8 6)"/>
</clipPath>
</defs>
</svg>
