<svg width="60" height="32" viewBox="0 0 60 32" fill="none" xmlns="http://www.w3.org/2000/svg">
<path fill-rule="evenodd" clip-rule="evenodd" d="M8 9.54581V9.49339L8.07341 9.14512H14.125C14.8956 9.14512 15.5897 9.65793 15.765 10.5462L17.2621 18.5018L20.9634 9.14512H24.6988L18.9372 22.8924H15.1781L12.3428 11.9211C12.1706 11.2457 12.0212 10.9976 11.498 10.7135C10.6453 10.2506 9.23941 9.81637 8 9.54581H8ZM30.7498 13.4374C30.7693 10.7622 33.2436 8.89355 36.7583 8.89355C38.1289 8.89355 39.2294 9.1923 40.0856 9.50284L39.4607 12.4176C37.8691 11.6852 36.4637 11.7366 35.9546 11.8032C34.9269 11.9373 34.4579 12.4614 34.4463 12.9543C34.412 14.5753 39.4445 14.7757 39.4288 18.4032C39.4169 21.2621 36.9736 23.1069 33.2372 23.1069C31.6471 23.0905 30.113 22.7583 29.2828 22.377L29.9264 19.3644C30.7535 19.7496 31.7914 20.2606 33.5788 20.2328C34.6026 20.2169 35.6973 19.8101 35.7076 18.8871C35.7127 18.2849 35.2482 17.853 33.8636 17.1792C32.5155 16.5209 30.7262 15.4177 30.7498 13.4374ZM46.0941 9.14512H49.1289L52 22.8924H48.7108L48.2813 20.8384H43.7193L42.9777 22.8924H39.2436L44.58 10.1533C44.8354 9.54174 45.4107 9.14512 46.0941 9.14512ZM46.615 12.8594L44.7427 18.0212H47.6924L46.615 12.8594ZM26.2255 9.14512H29.7807L26.8399 22.8924H23.2836L26.2255 9.14512Z" fill="white"/>
<mask id="mask0_4563_30552" style="mask-type:luminance" maskUnits="userSpaceOnUse" x="8" y="8" width="44" height="16">
<path fill-rule="evenodd" clip-rule="evenodd" d="M8 9.54581V9.49339L8.07341 9.14512H14.125C14.8956 9.14512 15.5897 9.65793 15.765 10.5462L17.2621 18.5018L20.9634 9.14512H24.6988L18.9372 22.8924H15.1781L12.3428 11.9211C12.1706 11.2457 12.0212 10.9976 11.498 10.7135C10.6453 10.2506 9.23941 9.81637 8 9.54581H8ZM30.7498 13.4374C30.7693 10.7622 33.2436 8.89355 36.7583 8.89355C38.1289 8.89355 39.2294 9.1923 40.0856 9.50284L39.4607 12.4176C37.8691 11.6852 36.4637 11.7366 35.9546 11.8032C34.9269 11.9373 34.4579 12.4614 34.4463 12.9543C34.412 14.5753 39.4445 14.7757 39.4288 18.4032C39.4169 21.2621 36.9736 23.1069 33.2372 23.1069C31.6471 23.0905 30.113 22.7583 29.2828 22.377L29.9264 19.3644C30.7535 19.7496 31.7914 20.2606 33.5788 20.2328C34.6026 20.2169 35.6973 19.8101 35.7076 18.8871C35.7127 18.2849 35.2482 17.853 33.8636 17.1792C32.5155 16.5209 30.7262 15.4177 30.7498 13.4374ZM46.0941 9.14512H49.1289L52 22.8924H48.7108L48.2813 20.8384H43.7193L42.9777 22.8924H39.2436L44.58 10.1533C44.8354 9.54174 45.4107 9.14512 46.0941 9.14512ZM46.615 12.8594L44.7427 18.0212H47.6924L46.615 12.8594ZM26.2255 9.14512H29.7807L26.8399 22.8924H23.2836L26.2255 9.14512Z" fill="white"/>
</mask>
<g mask="url(#mask0_4563_30552)">
</g>
</svg>
